<svg version="1.1" id="Layer_1" xmlns="http://www.w3.org/2000/svg" xmlns:xlink="http://www.w3.org/1999/xlink" x="0px" y="0px"
	 width="100%" viewBox="0 0 720 720" enable-background="new 0 0 720 720" xml:space="preserve">
<path fill="#146EF6" opacity="1.000000" stroke="none" 
	d="
M325.000000,721.000000 
	C216.666672,721.000000 108.833336,721.000000 1.000000,721.000000 
	C1.000000,481.000000 1.000000,241.000000 1.000000,1.000000 
	C241.000000,1.000000 481.000000,1.000000 721.000000,1.000000 
	C721.000000,241.000000 721.000000,481.000000 721.000000,721.000000 
	C589.166687,721.000000 457.333344,721.000000 325.000000,721.000000 
M230.918808,458.059540 
	C230.918808,458.059540 230.959167,458.088776 231.140106,458.823059 
	C232.835892,459.514160 234.526443,460.790039 236.228271,460.805298 
	C252.135590,460.947845 268.045227,460.922577 283.952911,460.789062 
	C285.559845,460.775543 287.158112,459.730408 288.854858,458.912598 
	C288.854858,458.912598 289.094513,458.791473 289.728455,458.472137 
	C290.111481,456.244171 290.821320,454.017151 290.827850,451.788086 
	C290.906738,424.817963 290.604736,397.843170 291.027344,370.879395 
	C291.185120,360.815247 292.362518,350.666260 294.159851,340.752655 
	C296.737671,326.533905 307.008240,316.346161 321.891418,315.088745 
	C331.748291,314.256012 343.632538,317.200317 346.990631,329.220154 
	C349.411194,337.884125 350.823425,347.094452 350.953156,356.086090 
	C351.416504,388.210846 351.107941,420.346344 351.219910,452.477325 
	C351.227203,454.578369 352.313812,456.675629 353.147156,458.909760 
	C353.147156,458.909760 353.253693,459.172028 353.565765,459.786407 
	C355.803772,460.147675 358.041168,460.818970 360.279907,460.823639 
	C392.611267,460.891357 424.942749,460.856598 457.274200,460.894470 
	C459.752258,460.897369 462.287476,461.673920 464.691254,461.338654 
	C467.012726,461.014893 470.227600,460.373657 471.270386,458.737579 
	C476.522217,450.497650 481.317932,441.955963 486.029938,433.386169 
	C490.591644,425.089813 494.814484,416.607697 499.289154,408.262360 
	C500.169678,406.620117 501.520111,405.229828 502.994537,403.270691 
	C507.020325,410.571777 510.616302,417.085663 514.205017,423.603546 
	C519.499817,433.220154 525.680115,442.477814 529.783081,452.578918 
	C532.755371,459.896484 537.040588,461.151245 543.851807,461.024841 
	C561.177979,460.703308 578.514465,460.965729 595.845703,460.843384 
	C597.810120,460.829559 599.767761,459.851624 602.185852,458.990906 
	C602.367432,458.942169 602.548950,458.893463 603.170288,458.722809 
	C603.132874,457.426727 603.574158,455.836151 602.985352,454.879333 
	C595.596863,442.871735 588.182495,430.875244 580.463684,419.079407 
	C578.776550,416.501007 575.867432,414.722168 573.397949,412.554077 
	C573.397949,412.554077 573.407715,412.429535 573.509644,411.674591 
	C570.795166,406.266724 568.412964,400.657867 565.291077,395.496399 
	C560.170715,387.030701 555.534851,377.962708 548.908508,370.801483 
	C541.870422,363.195160 544.706482,357.634552 549.366821,351.242157 
	C549.758301,350.705109 550.264771,350.214569 550.514282,349.617401 
	C552.186646,345.615143 553.803833,341.589844 555.578430,337.577393 
	C555.578430,337.577393 555.451599,337.519165 556.162354,337.462097 
	C557.280701,336.324829 558.641724,335.341583 559.477722,334.024994 
	C564.541626,326.049835 569.526428,318.023438 574.456970,309.964783 
	C578.345093,303.609833 582.105713,297.176971 585.944153,290.791412 
	C589.528320,284.828857 593.225220,278.931763 596.688599,272.900208 
	C597.733398,271.080627 598.163635,268.908173 598.875427,266.897339 
	C596.928589,266.288849 594.985107,265.164825 593.034363,265.152069 
	C574.723022,265.031891 556.409851,265.026886 538.098267,265.147095 
	C528.391663,265.210846 529.241455,265.933899 525.249023,274.068634 
	C518.672302,287.469116 512.470581,301.053253 505.987000,314.500305 
	C505.210785,316.110229 503.663513,317.348358 501.673370,319.707489 
	C493.843597,303.254486 486.109650,288.067474 479.440338,272.426514 
	C477.017639,266.744751 474.024597,264.957886 468.329712,265.025787 
	C450.186340,265.242096 432.038727,265.086029 413.893768,265.214996 
	C412.267914,265.226501 410.649292,266.258972 408.384247,267.067169 
	C408.166809,267.142059 407.949402,267.216949 407.260498,267.404297 
	C407.320099,268.896393 406.848450,270.707733 407.522949,271.830383 
	C413.148193,281.192963 419.074219,290.374298 424.737854,299.714417 
	C435.384918,317.272797 445.799347,334.973145 456.547119,352.469147 
	C461.906891,361.194214 461.908691,362.941925 456.124268,371.623657 
	C453.326996,375.821991 451.382233,380.588348 449.036163,385.033295 
	C449.036163,385.033295 449.101959,385.038788 448.396301,385.096100 
	C447.482239,385.751038 446.263123,386.210693 445.700134,387.090332 
	C437.873962,399.318298 430.072144,411.563202 422.428345,423.905518 
	C420.654663,426.769501 419.494751,430.013580 418.035004,433.018097 
	C418.035004,433.018097 418.096558,433.044464 417.405426,433.059998 
	C415.888580,434.357117 414.371735,435.654236 411.933319,437.739471 
	C411.933319,434.885742 411.933472,433.122223 411.933289,431.358704 
	C411.929779,398.033203 411.828461,364.707275 411.964935,331.382355 
	C412.030914,315.280518 407.857025,300.654480 398.296844,287.611298 
	C391.678711,278.582062 383.715485,270.414703 373.294067,266.855774 
	C355.205444,260.678558 336.614838,258.688110 317.395538,263.668945 
	C302.294678,267.582458 289.673462,274.400360 279.921539,286.541901 
	C278.450714,288.373199 276.732788,290.006042 275.506866,291.324493 
	C271.815308,287.107697 269.062500,282.835327 265.277435,279.889160 
	C258.677795,274.752167 251.913620,269.374725 244.365982,266.010437 
	C232.180939,260.579041 219.092239,260.236786 205.740097,261.815002 
	C192.166565,263.419342 180.553467,268.403778 170.527206,277.526947 
	C167.828171,279.982849 164.857681,282.140381 162.011795,284.434875 
	C161.067780,280.654449 159.685867,276.921021 159.274261,273.083496 
	C158.504028,265.902191 158.092804,265.232819 150.677414,265.195251 
	C139.347015,265.137848 128.016281,265.133392 116.685684,265.135498 
	C110.603020,265.136627 108.910782,267.117676 109.201790,273.382874 
	C109.541351,280.693390 109.933624,288.010773 109.945320,295.325745 
	C110.014351,338.482178 110.023010,381.638916 109.945663,424.795319 
	C109.928375,434.444366 109.352486,444.092316 109.327431,453.741516 
	C109.320526,456.399078 110.374298,459.059357 110.869217,461.380035 
	C114.922676,461.179993 118.056648,460.899200 121.191216,460.892365 
	C135.021057,460.862183 148.851074,460.919312 162.681015,460.927795 
	C170.229630,460.932404 170.792969,460.285034 170.113159,453.036438 
	C169.927002,451.051392 169.965927,449.041779 169.965027,447.043396 
	C169.953995,422.715759 169.686020,398.383759 170.080032,374.062561 
	C170.246170,363.807556 171.490646,353.532776 172.824966,343.342957 
	C174.645996,329.436462 185.727127,315.625031 201.801514,315.269135 
	C213.714798,315.005371 224.555191,319.783997 227.784668,333.008545 
	C228.996674,337.971619 229.789825,343.036957 230.787048,348.828430 
	C230.814011,349.859558 230.840973,350.890686 230.737488,352.203186 
	C230.663956,352.519653 230.713867,352.816711 230.842392,354.018982 
	C230.830338,387.607513 230.818268,421.196014 230.365860,455.115936 
	C230.548950,456.080627 230.732040,457.045288 230.918808,458.059540 
z"/>
<path fill="#FCFEFE" opacity="1.000000" stroke="none" 
	d="
M407.731964,267.291840 
	C407.949402,267.216949 408.166809,267.142059 409.161957,267.035583 
	C429.749939,267.018738 449.560730,267.109833 469.369995,266.976410 
	C472.849243,266.953033 474.661133,268.014496 476.144958,271.276611 
	C480.961182,281.864716 486.172424,292.273621 491.265564,302.734985 
	C494.862335,310.122772 498.514374,317.483643 502.428925,325.440369 
	C503.277100,323.992371 503.737457,323.317291 504.089233,322.589661 
	C512.411194,305.376007 520.777161,288.183075 528.976440,270.911072 
	C530.271240,268.183563 531.658630,266.948303 534.912842,266.976959 
	C554.222107,267.147034 573.533691,267.037445 592.844543,267.040405 
	C594.101501,267.040588 595.358459,267.194946 597.405518,267.329559 
	C583.182678,291.124664 569.317139,314.321930 555.451599,337.519165 
	C555.451599,337.519165 555.578430,337.577393 555.282715,337.812622 
	C551.634766,343.603302 548.672668,349.448730 544.820312,354.632599 
	C540.979797,359.800476 541.159790,363.712708 544.912292,369.082458 
	C554.813049,383.250366 563.960388,397.944763 573.407715,412.429535 
	C573.407715,412.429535 573.397949,412.554077 573.569458,412.885345 
	C574.429382,414.344940 575.099243,415.485138 575.809204,416.599762 
	C584.779541,430.683594 593.755737,444.763702 602.730469,458.844727 
	C602.548950,458.893463 602.367432,458.942169 601.535583,459.053314 
	C580.722534,459.104431 560.558899,459.175385 540.398376,458.958130 
	C538.316528,458.935699 535.276062,457.765564 534.339966,456.160248 
	C528.308899,445.817780 522.762451,435.193512 517.012085,424.686310 
	C512.342224,416.153381 507.609680,407.654724 502.635773,398.653748 
	C501.487091,400.475769 500.723663,401.556824 500.091034,402.709595 
	C490.802460,419.634613 481.407104,436.503143 472.348358,453.550476 
	C470.231903,457.533386 467.993469,459.233490 463.227753,459.206848 
	C426.570831,459.001678 389.911957,459.140167 353.253693,459.172028 
	C353.253693,459.172028 353.147156,458.909760 353.057373,458.400452 
	C352.952393,424.103394 352.973297,390.315552 352.885559,356.527985 
	C352.871307,351.046967 352.710175,345.524567 352.019897,340.097260 
	C351.091492,332.798187 349.313293,325.624817 343.813843,320.201447 
	C333.080688,309.616882 311.506653,310.886932 301.012360,322.705475 
	C291.182281,333.776001 289.288269,347.495605 289.165894,361.425995 
	C288.880829,393.878876 289.087219,426.336029 289.094513,458.791473 
	C289.094513,458.791473 288.854858,458.912598 288.369690,458.994385 
	C271.096985,459.075958 254.309296,459.110779 237.522217,459.026428 
	C235.655533,459.017090 233.792252,458.329224 231.991241,457.496368 
	C232.060669,442.926422 232.096863,428.816101 232.064774,414.705933 
	C232.014191,392.466187 231.917709,370.226532 231.910858,347.549622 
	C231.631897,343.804871 231.542648,340.444489 230.882339,337.200317 
	C229.227325,329.068909 226.688248,321.323669 218.935654,316.748688 
	C207.329315,309.899506 189.355621,312.691803 180.358551,322.770752 
	C172.291519,331.807831 169.165680,342.914551 168.980331,354.559143 
	C168.463440,387.032715 168.553696,419.515869 168.378784,451.995117 
	C168.366699,454.240051 168.145279,456.483887 168.027252,458.619019 
	C148.718735,458.619019 130.018555,458.619019 111.439270,458.619019 
	C111.439270,394.583740 111.439270,331.026306 111.439270,267.373749 
	C126.703842,267.373749 141.595596,267.373749 156.630234,267.373749 
	C157.731857,275.729980 158.791229,283.765656 160.071594,293.477600 
	C174.628571,271.171844 194.498672,262.024170 219.343430,262.926086 
	C244.112671,263.825348 263.125336,274.461884 275.120361,296.119659 
	C279.696564,290.705872 283.351044,285.231995 288.095795,280.972687 
	C306.558411,264.398956 328.893677,261.127655 352.540100,263.622406 
	C364.133789,264.845581 374.965057,268.713257 384.245331,275.961761 
	C402.242371,290.018646 409.799744,309.221069 409.999664,331.428162 
	C410.305542,365.408478 410.060394,399.393738 410.049469,433.376923 
	C410.048309,437.030518 410.049347,440.684113 410.049347,444.337677 
	C410.488403,444.408112 410.927490,444.478516 411.366547,444.548920 
	C413.609894,440.714111 415.853241,436.879303 418.096558,433.044464 
	C418.096558,433.044464 418.035004,433.018097 418.349487,432.906647 
	C423.709473,425.002472 428.799408,417.238037 433.788239,409.409180 
	C438.944000,401.318329 444.001465,393.164856 449.101929,385.038757 
	C449.101959,385.038788 449.036163,385.033295 449.353760,384.923462 
	C452.920471,379.782898 455.638947,374.285431 459.550964,369.837738 
	C464.624939,364.069000 463.231232,359.571594 459.625641,353.683014 
	C442.084412,325.034943 424.986694,296.115326 407.731964,267.291840 
z"/>
<path fill="#4077C3" opacity="1.000000" stroke="none" 
	d="
M417.750977,433.052246 
	C415.853241,436.879303 413.609894,440.714111 411.366547,444.548920 
	C410.927490,444.478516 410.488403,444.408112 410.049347,444.337677 
	C410.049347,440.684113 410.048309,437.030518 410.049469,433.376923 
	C410.060394,399.393738 410.305542,365.408478 409.999664,331.428162 
	C409.799744,309.221069 402.242371,290.018646 384.245331,275.961761 
	C374.965057,268.713257 364.133789,264.845581 352.540100,263.622406 
	C328.893677,261.127655 306.558411,264.398956 288.095795,280.972687 
	C283.351044,285.231995 279.696564,290.705872 275.120361,296.119659 
	C263.125336,274.461884 244.112671,263.825348 219.343430,262.926086 
	C194.498672,262.024170 174.628571,271.171844 160.071594,293.477600 
	C158.791229,283.765656 157.731857,275.729980 156.630234,267.373749 
	C141.595596,267.373749 126.703842,267.373749 111.439270,267.373749 
	C111.439270,331.026306 111.439270,394.583740 111.439270,458.619019 
	C130.018555,458.619019 148.718735,458.619019 168.027252,458.619019 
	C168.145279,456.483887 168.366699,454.240051 168.378784,451.995117 
	C168.553696,419.515869 168.463440,387.032715 168.980331,354.559143 
	C169.165680,342.914551 172.291519,331.807831 180.358551,322.770752 
	C189.355621,312.691803 207.329315,309.899506 218.935654,316.748688 
	C226.688248,321.323669 229.227325,329.068909 230.882339,337.200317 
	C231.542648,340.444489 231.631897,343.804871 231.644211,347.567169 
	C231.129532,348.033203 230.951736,348.044434 230.773926,348.055695 
	C229.789825,343.036957 228.996674,337.971619 227.784668,333.008545 
	C224.555191,319.783997 213.714798,315.005371 201.801514,315.269135 
	C185.727127,315.625031 174.645996,329.436462 172.824966,343.342957 
	C171.490646,353.532776 170.246170,363.807556 170.080032,374.062561 
	C169.686020,398.383759 169.953995,422.715759 169.965027,447.043396 
	C169.965927,449.041779 169.927002,451.051392 170.113159,453.036438 
	C170.792969,460.285034 170.229630,460.932404 162.681015,460.927795 
	C148.851074,460.919312 135.021057,460.862183 121.191216,460.892365 
	C118.056648,460.899200 114.922676,461.179993 110.869217,461.380035 
	C110.374298,459.059357 109.320526,456.399078 109.327431,453.741516 
	C109.352486,444.092316 109.928375,434.444366 109.945663,424.795319 
	C110.023010,381.638916 110.014351,338.482178 109.945320,295.325745 
	C109.933624,288.010773 109.541351,280.693390 109.201790,273.382874 
	C108.910782,267.117676 110.603020,265.136627 116.685684,265.135498 
	C128.016281,265.133392 139.347015,265.137848 150.677414,265.195251 
	C158.092804,265.232819 158.504028,265.902191 159.274261,273.083496 
	C159.685867,276.921021 161.067780,280.654449 162.011810,284.434875 
	C164.857681,282.140381 167.828171,279.982849 170.527206,277.526947 
	C180.553467,268.403778 192.166565,263.419342 205.740097,261.815002 
	C219.092239,260.236786 232.180939,260.579041 244.365982,266.010437 
	C251.913620,269.374725 258.677795,274.752167 265.277435,279.889160 
	C269.062500,282.835327 271.815308,287.107697 275.506866,291.324493 
	C276.732788,290.006042 278.450714,288.373199 279.921539,286.541901 
	C289.673462,274.400360 302.294678,267.582458 317.395538,263.668945 
	C336.614838,258.688110 355.205444,260.678558 373.294067,266.855774 
	C383.715485,270.414703 391.678711,278.582062 398.296844,287.611298 
	C407.857025,300.654480 412.030914,315.280518 411.964935,331.382355 
	C411.828461,364.707275 411.929779,398.033203 411.933289,431.358704 
	C411.933472,433.122223 411.933319,434.885742 411.933319,437.739471 
	C414.371735,435.654236 415.888580,434.357117 417.750977,433.052246 
z"/>
<path fill="#4077C3" opacity="1.000000" stroke="none" 
	d="
M555.807007,337.490631 
	C569.317139,314.321930 583.182678,291.124664 597.405518,267.329559 
	C595.358459,267.194946 594.101501,267.040588 592.844543,267.040405 
	C573.533691,267.037445 554.222107,267.147034 534.912842,266.976959 
	C531.658630,266.948303 530.271240,268.183563 528.976440,270.911072 
	C520.777161,288.183075 512.411194,305.376007 504.089233,322.589661 
	C503.737457,323.317291 503.277100,323.992371 502.428925,325.440369 
	C498.514374,317.483643 494.862335,310.122772 491.265564,302.734985 
	C486.172424,292.273621 480.961182,281.864716 476.144958,271.276611 
	C474.661133,268.014496 472.849243,266.953033 469.369995,266.976410 
	C449.560730,267.109833 429.749939,267.018738 409.483490,266.910614 
	C410.649292,266.258972 412.267914,265.226501 413.893768,265.214996 
	C432.038727,265.086029 450.186340,265.242096 468.329712,265.025787 
	C474.024597,264.957886 477.017639,266.744751 479.440338,272.426514 
	C486.109650,288.067474 493.843597,303.254486 501.673370,319.707489 
	C503.663513,317.348358 505.210785,316.110229 505.987000,314.500305 
	C512.470581,301.053253 518.672302,287.469116 525.249023,274.068634 
	C529.241455,265.933899 528.391663,265.210846 538.098267,265.147095 
	C556.409851,265.026886 574.723022,265.031891 593.034363,265.152069 
	C594.985107,265.164825 596.928589,266.288849 598.875427,266.897339 
	C598.163635,268.908173 597.733398,271.080627 596.688599,272.900208 
	C593.225220,278.931763 589.528320,284.828857 585.944153,290.791412 
	C582.105713,297.176971 578.345093,303.609833 574.456970,309.964783 
	C569.526428,318.023438 564.541626,326.049835 559.477722,334.024994 
	C558.641724,335.341583 557.280701,336.324829 555.807007,337.490631 
z"/>
<path fill="#4077C3" opacity="1.000000" stroke="none" 
	d="
M353.409729,459.479218 
	C389.911957,459.140167 426.570831,459.001678 463.227753,459.206848 
	C467.993469,459.233490 470.231903,457.533386 472.348358,453.550476 
	C481.407104,436.503143 490.802460,419.634613 500.091034,402.709595 
	C500.723663,401.556824 501.487091,400.475769 502.635773,398.653748 
	C507.609680,407.654724 512.342224,416.153381 517.012085,424.686310 
	C522.762451,435.193512 528.308899,445.817780 534.339966,456.160248 
	C535.276062,457.765564 538.316528,458.935699 540.398376,458.958130 
	C560.558899,459.175385 580.722534,459.104431 601.306885,459.218262 
	C599.767761,459.851624 597.810120,460.829559 595.845703,460.843384 
	C578.514465,460.965729 561.177979,460.703308 543.851807,461.024841 
	C537.040588,461.151245 532.755371,459.896484 529.783081,452.578918 
	C525.680115,442.477814 519.499817,433.220154 514.205017,423.603546 
	C510.616302,417.085663 507.020325,410.571777 502.994537,403.270691 
	C501.520111,405.229828 500.169678,406.620117 499.289154,408.262360 
	C494.814484,416.607697 490.591644,425.089813 486.029938,433.386169 
	C481.317932,441.955963 476.522217,450.497650 471.270386,458.737579 
	C470.227600,460.373657 467.012726,461.014893 464.691254,461.338654 
	C462.287476,461.673920 459.752258,460.897369 457.274200,460.894470 
	C424.942749,460.856598 392.611267,460.891357 360.279907,460.823639 
	C358.041168,460.818970 355.803772,460.147675 353.409729,459.479218 
z"/>
<path fill="#4077C3" opacity="1.000000" stroke="none" 
	d="
M289.411499,458.631805 
	C289.087219,426.336029 288.880829,393.878876 289.165894,361.425995 
	C289.288269,347.495605 291.182281,333.776001 301.012360,322.705475 
	C311.506653,310.886932 333.080688,309.616882 343.813843,320.201447 
	C349.313293,325.624817 351.091492,332.798187 352.019897,340.097260 
	C352.710175,345.524567 352.871307,351.046967 352.885559,356.527985 
	C352.973297,390.315552 352.952393,424.103394 352.932983,458.332886 
	C352.313812,456.675629 351.227203,454.578369 351.219910,452.477325 
	C351.107941,420.346344 351.416504,388.210846 350.953156,356.086090 
	C350.823425,347.094452 349.411194,337.884125 346.990631,329.220154 
	C343.632538,317.200317 331.748291,314.256012 321.891418,315.088745 
	C307.008240,316.346161 296.737671,326.533905 294.159851,340.752655 
	C292.362518,350.666260 291.185120,360.815247 291.027344,370.879395 
	C290.604736,397.843170 290.906738,424.817963 290.827850,451.788086 
	C290.821320,454.017151 290.111481,456.244171 289.411499,458.631805 
z"/>
<path fill="#4077C3" opacity="1.000000" stroke="none" 
	d="
M407.496216,267.348083 
	C424.986694,296.115326 442.084412,325.034943 459.625641,353.683014 
	C463.231232,359.571594 464.624939,364.069000 459.550964,369.837738 
	C455.638947,374.285431 452.920471,379.782898 449.361389,384.955566 
	C451.382233,380.588348 453.326996,375.821991 456.124268,371.623657 
	C461.908691,362.941925 461.906891,361.194214 456.547119,352.469147 
	C445.799347,334.973145 435.384918,317.272797 424.737854,299.714417 
	C419.074219,290.374298 413.148193,281.192963 407.522949,271.830383 
	C406.848450,270.707733 407.320099,268.896393 407.496216,267.348083 
z"/>
<path fill="#4077C3" opacity="1.000000" stroke="none" 
	d="
M573.458679,412.052063 
	C563.960388,397.944763 554.813049,383.250366 544.912292,369.082458 
	C541.159790,363.712708 540.979797,359.800476 544.820312,354.632599 
	C548.672668,349.448730 551.634766,343.603302 555.213013,337.809937 
	C553.803833,341.589844 552.186646,345.615143 550.514282,349.617401 
	C550.264771,350.214569 549.758301,350.705109 549.366821,351.242157 
	C544.706482,357.634552 541.870422,363.195160 548.908508,370.801483 
	C555.534851,377.962708 560.170715,387.030701 565.291077,395.496399 
	C568.412964,400.657867 570.795166,406.266724 573.458679,412.052063 
z"/>
<path fill="#4077C3" opacity="1.000000" stroke="none" 
	d="
M448.749115,385.067444 
	C444.001465,393.164856 438.944000,401.318329 433.788239,409.409180 
	C428.799408,417.238037 423.709473,425.002472 418.358185,432.938965 
	C419.494751,430.013580 420.654663,426.769501 422.428345,423.905518 
	C430.072144,411.563202 437.873962,399.318298 445.700134,387.090332 
	C446.263123,386.210693 447.482239,385.751038 448.749115,385.067444 
z"/>
<path fill="#4077C3" opacity="1.000000" stroke="none" 
	d="
M602.950378,458.783752 
	C593.755737,444.763702 584.779541,430.683594 575.809204,416.599762 
	C575.099243,415.485138 574.429382,414.344940 573.630981,412.895874 
	C575.867432,414.722168 578.776550,416.501007 580.463684,419.079407 
	C588.182495,430.875244 595.596863,442.871735 602.985352,454.879333 
	C603.574158,455.836151 603.132874,457.426727 602.950378,458.783752 
z"/>
<path fill="#4077C3" opacity="1.000000" stroke="none" 
	d="
M231.927399,457.956055 
	C233.792252,458.329224 235.655533,459.017090 237.522217,459.026428 
	C254.309296,459.110779 271.096985,459.075958 288.322449,459.120087 
	C287.158112,459.730408 285.559845,460.775543 283.952911,460.789062 
	C268.045227,460.922577 252.135590,460.947845 236.228271,460.805298 
	C234.526443,460.790039 232.835892,459.514160 231.291702,458.421509 
	C231.443298,458.019989 231.927399,457.956055 231.927399,457.956055 
z"/>
<path fill="#3971B5" opacity="1.000000" stroke="none" 
	d="
M231.991241,457.496368 
	C231.927399,457.956055 231.443298,458.019989 231.201233,458.054382 
	C230.959167,458.088776 230.918808,458.059540 230.926483,457.632935 
	C230.891510,456.399078 230.848846,455.591797 230.806183,454.784546 
	C230.818268,421.196014 230.830338,387.607513 230.866241,353.263306 
	C230.882706,352.312408 230.875320,352.117126 230.867920,351.921814 
	C230.840973,350.890686 230.814011,349.859558 230.780487,348.442078 
	C230.951736,348.044434 231.129532,348.033203 231.573975,348.004395 
	C231.917709,370.226532 232.014191,392.466187 232.064774,414.705933 
	C232.096863,428.816101 232.060669,442.926422 231.991241,457.496368 
z"/>
<path fill="#4077C3" opacity="1.000000" stroke="none" 
	d="
M230.586029,454.950256 
	C230.848846,455.591797 230.891510,456.399078 230.924652,457.608154 
	C230.732040,457.045288 230.548950,456.080627 230.586029,454.950256 
z"/>
<path fill="#4077C3" opacity="1.000000" stroke="none" 
	d="
M230.802704,352.062500 
	C230.875320,352.117126 230.882706,352.312408 230.888672,352.800995 
	C230.713867,352.816711 230.663956,352.519653 230.802704,352.062500 
z"/>
</svg>